HIERARCHY
ROOT Hips
{
    OFFSET 0.000000 0.000000 0.000000
    CHANNELS 6 Xposition Yposition Zposition Zrotation Xrotation Yrotation
    JOINT Spine
    {
        OFFSET -0.000000 7.675621 0.000000
        CHANNELS 3 Zrotation Xrotation Yrotation
        JOINT Spine1
        {
            OFFSET -0.000000 18.989058 0.000000
            CHANNELS 3 Zrotation Xrotation Yrotation
            JOINT Neck
            {
                OFFSET -0.000000 20.861160 0.000000
                CHANNELS 3 Zrotation Xrotation Yrotation
                JOINT Head
                {
                    OFFSET -0.000000 14.508796 1.872102
                    CHANNELS 3 Zrotation Xrotation Yrotation
                    End Site
                    {
                        OFFSET -0.000000 18.721025 0.000000
                    }
                }
            }
            JOINT LeftShoulder
            {
                OFFSET 3.803890 16.435163 -0.376809
                CHANNELS 3 Zrotation Xrotation Yrotation
                JOINT LeftArm
                {
                    OFFSET 13.491586 0.000000 0.000000
                    CHANNELS 3 Zrotation Xrotation Yrotation
                    JOINT LeftForeArm
                    {
                        OFFSET 26.595486 0.000000 0.000000
                        CHANNELS 3 Zrotation Xrotation Yrotation
                        JOINT LeftHand
                        {
                            OFFSET 27.333027 0.000000 0.000000
                            CHANNELS 3 Zrotation Xrotation Yrotation
                            End Site
                            {
                                OFFSET 14.040770 0.000000 0.000000
                            }
                        }
                    }
                }
            }
            JOINT RightShoulder
            {
                OFFSET -3.655588 16.435163 -0.376809
                CHANNELS 3 Zrotation Xrotation Yrotation
                JOINT RightArm
                {
                    OFFSET -13.491586 0.000000 0.000000
                    CHANNELS 3 Zrotation Xrotation Yrotation
                    JOINT RightForeArm
                    {
                        OFFSET -26.595486 0.000000 0.000000
                        CHANNELS 3 Zrotation Xrotation Yrotation
                        JOINT RightHand
                        {
                            OFFSET -27.333027 0.000000 0.000000
                            CHANNELS 3 Zrotation Xrotation Yrotation
                            End Site
                            {
                                OFFSET -14.040770 0.000000 0.000000
                            }
                        }
                    }
                }
            }
        }
    }
    JOINT LeftUpLeg
    {
        OFFSET 9.360513 0.000000 0.000000
        CHANNELS 3 Zrotation Xrotation Yrotation
        JOINT LeftLeg
        {
            OFFSET -0.000000 -38.119110 0.000000
            CHANNELS 3 Zrotation Xrotation Yrotation
            JOINT LeftFoot
            {
                OFFSET -0.000000 -45.088081 0.000000
                CHANNELS 3 Zrotation Xrotation Yrotation
                JOINT LeftToeBase
                {
                    OFFSET -0.000000 -6.084333 14.040770
                    CHANNELS 3 Zrotation Xrotation Yrotation
                    End Site
                    {
                        OFFSET -0.000000 0.000000 3.744205
                    }
                }
            }
        }
    }
    JOINT RightUpLeg
    {
        OFFSET -9.360513 0.000000 0.000000
        CHANNELS 3 Zrotation Xrotation Yrotation
        JOINT RightLeg
        {
            OFFSET -0.000000 -38.119110 0.000000
            CHANNELS 3 Zrotation Xrotation Yrotation
            JOINT RightFoot
            {
                OFFSET -0.000000 -45.088081 0.000000
                CHANNELS 3 Zrotation Xrotation Yrotation
                JOINT RightToeBase
                {
                    OFFSET -0.000000 -6.084333 14.040770
                    CHANNELS 3 Zrotation Xrotation Yrotation
                    End Site
                    {
                        OFFSET -0.000000 0.000000 3.744205
                    }
                }
            }
        }
    }
}
MOTION
Frames:    5
Frame Time:    0.008333
3.235128    86.279335    -17.537148    0.355211    -0.136651    -4.486207    -1.576136    -9.239632    2.407575    0.566935    2.701012    0.826926    1.592813    9.322698    11.882004    -2.810314    -1.518404    12.935682    14.656085    0.236686    -5.132335    -22.338964    9.389456    -2.827024    1.271588    -8.948456    -10.869050    -7.108832    -8.812167    -0.274285    -14.018757    1.510629    -3.315576    24.840149    3.361521    8.463919    -2.240134    -4.845800    7.766182    2.406955    -4.710610    -0.780917    1.144877    3.332171    -5.822476    -2.286068    2.541417    -4.811680    12.941385    -5.039438    14.521183    0.000000    0.000000    0.000000    -5.099735    -0.424797    3.908407    8.584847    7.544352    3.212792    -4.768824    -8.844169    -12.847151    0.000000    0.000000    0.000000    
3.228944    86.281113    -17.527052    0.354261    -0.142174    -4.504666    -1.604232    -9.163309    2.400095    0.583945    2.600689    0.824946    1.552915    9.371233    11.907619    -2.777452    -1.565733    12.949349    14.897520    0.092065    -5.259480    -21.833683    9.017748    -2.551447    1.342669    -8.997541    -10.566173    -7.105745    -8.855357    -0.319329    -14.203342    1.394107    -3.211293    24.302307    3.292121    8.111513    -2.271856    -4.859468    7.746406    2.424760    -4.722082    -0.754676    1.150028    3.353078    -5.832500    -2.290179    2.530288    -4.808027    12.965970    -5.033338    14.543116    0.000000    0.000000    0.000000    -5.094552    -0.411634    3.915661    8.581731    7.537998    3.210887    -4.782623    -8.839069    -12.841044    0.000000    0.000000    0.000000    
3.224434    86.287109    -17.525202    0.333579    -0.103414    -4.530581    -1.617020    -9.128679    2.397483    0.624701    2.502501    0.823911    1.503269    9.423176    11.928273    -2.747218    -1.618043    12.956020    15.088528    -0.101767    -5.340135    -21.312290    8.697521    -2.329971    1.395160    -8.996245    -10.255966    -7.065938    -8.850990    -0.354268    -14.382423    1.237255    -3.109077    23.782761    3.065197    7.853163    -2.278971    -4.757630    7.521995    2.398737    -4.622489    -0.680560    1.171747    3.319182    -5.824612    -2.285658    2.531596    -4.765650    12.937788    -5.036951    14.514845    0.000000    0.000000    0.000000    -5.063471    -0.454160    3.898626    8.569283    7.546989    3.215322    -4.766233    -8.816414    -12.806931    0.000000    0.000000    0.000000    
3.218091    86.295090    -17.524982    0.312184    -0.067994    -4.556112    -1.633296    -9.082193    2.399891    0.663008    2.389821    0.824729    1.466237    9.462219    11.947732    -2.714952    -1.637788    12.964528    15.271259    -0.355188    -5.379200    -20.793447    8.444151    -2.184417    1.430090    -9.009666    -9.909804    -7.221887    -8.869651    -0.281817    -14.600924    1.872624    -3.533160    23.405766    2.061976    8.729545    -2.302053    -4.510636    6.876453    2.433251    -4.383058    -0.488499    1.198872    3.285437    -5.806441    -2.287605    2.540151    -4.783625    12.947724    -5.023261    14.545906    0.000000    0.000000    0.000000    -5.031536    -0.495088    3.913545    8.565582    7.552458    3.192559    -4.766516    -8.777930    -12.780606    0.000000    0.000000    0.000000    
3.215245    86.292786    -17.506577    0.326323    -0.110426    -4.552201    -1.710837    -8.979925    2.380891    0.736752    2.300559    0.819044    1.399116    9.486852    11.966063    -2.658779    -1.643377    12.962805    15.446537    -0.542193    -5.461829    -20.326534    8.214005    -1.972487    1.502953    -8.940558    -9.621700    -7.060129    -8.792542    -0.378478    -14.825539    1.760473    -3.408288    22.993532    1.698176    8.464108    -2.286997    -4.378811    6.631738    2.474735    -4.253901    -0.337062    1.157028    3.371483    -5.771502    -2.234123    2.482266    -4.692292    12.894953    -5.034390    14.408859    0.000000    0.000000    0.000000    -5.063912    -0.426750    3.923350    8.590443    7.526942    3.274305    -4.775615    -8.789753    -12.854918    0.000000    0.000000    0.000000    
